<svg width="44" height="44" viewBox="0 0 44 44" fill="none" xmlns="http://www.w3.org/2000/svg">
<path d="M0 15C0 9.74951 0 7.12426 1.02181 5.11884C1.92063 3.35482 3.35482 1.92063 5.11884 1.02181C7.12426 0 9.74951 0 15 0H28.75C34.0005 0 36.6257 0 38.6312 1.02181C40.3952 1.92063 41.8294 3.35482 42.7282 5.11884C43.75 7.12426 43.75 9.74951 43.75 15V28.75C43.75 34.0005 43.75 36.6257 42.7282 38.6312C41.8294 40.3952 40.3952 41.8294 38.6312 42.7282C36.6257 43.75 34.0005 43.75 28.75 43.75H15C9.74951 43.75 7.12426 43.75 5.11884 42.7282C3.35482 41.8294 1.92063 40.3952 1.02181 38.6312C0 36.6257 0 34.0005 0 28.75V15Z" fill="black"></path><path d="M34.805 12.5417C32.4398 10.5417 29.6015 9.54167 26.6055 9.375L26.1325 9.875C28.8131 10.5417 31.1783 11.875 33.3859 13.7083C30.7053 12.2083 27.7093 11.2083 24.5556 10.875C23.6095 10.7083 22.8211 10.7083 21.875 10.7083C20.9289 10.7083 20.1405 10.7083 19.1944 10.875C16.0407 11.2083 13.0447 12.2083 10.3641 13.7083C12.5717 11.875 14.9369 10.5417 17.6175 9.875L17.1445 9.375C14.1485 9.54167 11.3102 10.5417 8.94495 12.5417C6.26433 17.875 4.84518 23.875 4.6875 30.0417C7.05275 32.7083 10.3641 34.375 13.8331 34.375C13.8331 34.375 14.9369 33.0417 15.7253 31.875C13.6755 31.375 11.7833 30.2083 10.5218 28.375C11.6256 29.0417 12.7294 29.7083 13.8331 30.2083C15.2523 30.875 16.6714 31.2083 18.0906 31.5417C19.3521 31.7083 20.6135 31.875 21.875 31.875C23.1365 31.875 24.3979 31.7083 25.6594 31.5417C27.0786 31.2083 28.4977 30.875 29.9169 30.2083C31.0206 29.7083 32.1244 29.0417 33.2282 28.375C31.9667 30.2083 30.0745 31.375 28.0247 31.875C28.8131 33.0417 29.9169 34.375 29.9169 34.375C33.3859 34.375 36.6972 32.7083 39.0625 30.0417C38.9048 23.875 37.4857 17.875 34.805 12.5417ZM16.6714 27.0417C15.0946 27.0417 13.6755 25.5417 13.6755 23.7083C13.6755 21.875 15.0946 20.375 16.6714 20.375C18.2483 20.375 19.6674 21.875 19.6674 23.7083C19.6674 25.5417 18.2483 27.0417 16.6714 27.0417ZM27.0786 27.0417C25.5017 27.0417 24.0826 25.5417 24.0826 23.7083C24.0826 21.875 25.5017 20.375 27.0786 20.375C28.6554 20.375 30.0745 21.875 30.0745 23.7083C30.0745 25.5417 28.6554 27.0417 27.0786 27.0417Z" fill="#70ED9D"></path>
</svg>
