<svg width="31" height="24" viewBox="0 0 31 24" fill="none" xmlns="http://www.w3.org/2000/svg">
<path d="M5.82836 17.9263C6.01227 17.7434 6.26161 17.6406 6.5216 17.6406H30.5086C30.9455 17.6406 31.1643 18.1667 30.8551 18.4742L26.1154 23.1895C25.9315 23.3725 25.6821 23.4753 25.4222 23.4753H1.43519C0.998255 23.4753 0.7795 22.9492 1.08857 22.6416L5.82836 17.9263Z" fill="black"></path><path d="M5.82836 0.311144C6.01227 0.128154 6.26161 0.0253906 6.5216 0.0253906H30.5086C30.9455 0.0253906 31.1643 0.55148 30.8551 0.859025L26.1154 5.57433C25.9315 5.75727 25.6821 5.86003 25.4222 5.86003H1.43519C0.998255 5.86003 0.7795 5.33394 1.08857 5.02645L5.82836 0.311144Z" fill="black"></path><path d="M26.1154 9.06304C25.9315 8.88011 25.6821 8.77734 25.4222 8.77734H1.43519C0.998255 8.77734 0.7795 9.30343 1.08857 9.61092L5.82836 14.3262C6.01227 14.5092 6.26161 14.612 6.5216 14.612H30.5086C30.9455 14.612 31.1643 14.0859 30.8551 13.7783L26.1154 9.06304Z" fill="black"></path>
</svg>
