<svg width="44" height="45" viewBox="0 0 44 45" fill="none" xmlns="http://www.w3.org/2000/svg">
<path d="M0 15.75C0 10.4995 0 7.87426 1.02181 5.86884C1.92063 4.10482 3.35482 2.67063 5.11884 1.77181C7.12426 0.75 9.74951 0.75 15 0.75H28.75C34.0005 0.75 36.6257 0.75 38.6312 1.77181C40.3952 2.67063 41.8294 4.10482 42.7282 5.86884C43.75 7.87426 43.75 10.4995 43.75 15.75V29.5C43.75 34.7505 43.75 37.3757 42.7282 39.3812C41.8294 41.1452 40.3952 42.5794 38.6312 43.4782C36.6257 44.5 34.0005 44.5 28.75 44.5H15C9.74951 44.5 7.12426 44.5 5.11884 43.4782C3.35482 42.5794 1.92063 41.1452 1.02181 39.3812C0 37.3757 0 34.7505 0 29.5V15.75Z" fill="black"></path><path d="M36.5229 24.65C35.1468 23.45 33.4954 22.85 31.7523 22.75L31.4771 23.05C33.0367 23.45 34.4128 24.25 35.6972 25.35C34.1376 24.45 32.3945 23.85 30.5596 23.65C30.0092 23.55 29.5505 23.55 29 23.55C28.4495 23.55 27.9908 23.55 27.4404 23.65C25.6055 23.85 23.8624 24.45 22.3028 25.35C23.5872 24.25 24.9633 23.45 26.5229 23.05L26.2477 22.75C24.5046 22.85 22.8532 23.45 21.4771 24.65C19.9174 27.85 19.0917 31.45 19 35.15C20.3761 36.75 22.3028 37.75 24.3211 37.75C24.3211 37.75 24.9633 36.95 25.422 36.25C24.2294 35.95 23.1284 35.25 22.3945 34.15C23.0367 34.55 23.6789 34.95 24.3211 35.25C25.1468 35.65 25.9725 35.85 26.7982 36.05C27.5321 36.15 28.2661 36.25 29 36.25C29.7339 36.25 30.4679 36.15 31.2018 36.05C32.0275 35.85 32.8532 35.65 33.6789 35.25C34.3211 34.95 34.9633 34.55 35.6055 34.15C34.8716 35.25 33.7706 35.95 32.578 36.25C33.0367 36.95 33.6789 37.75 33.6789 37.75C35.6972 37.75 37.6239 36.75 39 35.15C38.9083 31.45 38.0826 27.85 36.5229 24.65ZM25.9725 33.35C25.055 33.35 24.2294 32.45 24.2294 31.35C24.2294 30.25 25.055 29.35 25.9725 29.35C26.8899 29.35 27.7156 30.25 27.7156 31.35C27.7156 32.45 26.8899 33.35 25.9725 33.35ZM32.0275 33.35C31.1101 33.35 30.2844 32.45 30.2844 31.35C30.2844 30.25 31.1101 29.35 32.0275 29.35C32.945 29.35 33.7706 30.25 33.7706 31.35C33.7706 32.45 32.945 33.35 32.0275 33.35Z" fill="#70ED9D"></path><path d="M7.91614 16.4381C8.02593 16.3289 8.17479 16.2676 8.33001 16.2676H22.6506C22.9115 16.2676 23.0421 16.5817 22.8575 16.7652L20.0278 19.5804C19.918 19.6896 19.7692 19.751 19.614 19.751H5.29334C5.03248 19.751 4.90188 19.4369 5.0864 19.2533L7.91614 16.4381Z" fill="#70ED9D"></path><path d="M7.91614 5.9206C8.02593 5.81135 8.17479 5.75 8.33001 5.75H22.6506C22.9115 5.75 23.0421 6.06408 22.8575 6.24769L20.0278 9.06281C19.918 9.17202 19.7692 9.23338 19.614 9.23338H5.29334C5.03248 9.23338 4.90188 8.91929 5.0864 8.73572L7.91614 5.9206Z" fill="#70ED9D"></path><path d="M20.0278 11.1452C19.918 11.036 19.7692 10.9746 19.614 10.9746H5.29334C5.03248 10.9746 4.90188 11.2887 5.0864 11.4723L7.91614 14.2874C8.02593 14.3966 8.17479 14.458 8.33001 14.458H22.6506C22.9115 14.458 23.0421 14.1439 22.8575 13.9603L20.0278 11.1452Z" fill="#70ED9D"></path>
</svg>
