<svg width="575" height="432" viewBox="0 0 575 432" fill="none" xmlns="http://www.w3.org/2000/svg">
<g clip-path="url(#clip666)">
<g filter="url(#filter0_b666)">
<path d="M-149 0H724V551H-149V0Z" fill="#111111" fill-opacity="0.8"/>
</g>
<g opacity="0.75" filter="url(#filter1_f666)">
<mask id="mask666" mask-type="alpha" maskUnits="userSpaceOnUse" x="-28" y="-23" width="564" height="465">
<rect x="-28" y="-22.0024" width="564" height="464" fill="white"/>
</mask>
<g mask="url(#mask666)">
<g style="mix-blend-mode:overlay" filter="url(#filter2_f666)">
<ellipse cx="382.104" cy="89.213" rx="240.873" ry="240.907" fill="#2F1B52"/>
</g>
<g filter="url(#filter3_f666)">
<circle cx="128" cy="333.998" r="168" fill="#693BCC" fill-opacity="0.5"/>
</g>
<g filter="url(#filter4_f666)">
<circle cx="466" cy="130.998" r="168" fill="#00FFA3" fill-opacity="0.1"/>
</g>
</g>
</g>
</g>
<rect x="15" y="73" width="543" height="24" rx="4" fill="#1F2423" fill-opacity="0.5"/>
<rect x="15" y="17.3564" width="543" height="27.2864" rx="4" fill="#1F2423" fill-opacity="0.5"/>
<rect x="15" y="109" width="543" height="74" rx="4" fill="#1F2423" fill-opacity="0.5"/>
<path d="M49.9465 31.0247H52.1644C52.4759 31.0247 52.7285 31.2791 52.7285 31.593C52.7285 31.9069 52.4759 32.1614 52.1644 32.1614H49.4892C49.4475 32.1614 49.4071 32.1764 49.3753 32.2038L48.5676 32.9C48.444 33.0066 48.5188 33.2106 48.6815 33.2106H52.0304C52.0318 33.2106 52.0329 33.2095 52.0329 33.2081C52.0329 33.2066 52.0342 33.2055 52.0356 33.2056C52.0778 33.2089 52.1203 33.2106 52.1633 33.2106C53.0517 33.2106 53.7719 32.4864 53.7719 31.593C53.7719 30.7447 53.1224 30.0489 52.2963 29.9809C52.2949 29.9808 52.2938 29.9796 52.2938 29.9782C52.2938 29.9767 52.2925 29.9755 52.2911 29.9755H49.9017C49.5901 29.9755 49.3376 29.721 49.3376 29.4071C49.3376 29.0932 49.5901 28.8388 49.9017 28.8388H52.5731C52.6171 28.8388 52.6595 28.8221 52.6919 28.7921L53.4419 28.0959C53.5592 27.9869 53.4827 27.7896 53.3232 27.7896H49.9465C49.9463 27.7896 49.9462 27.7897 49.9462 27.7898C49.9462 27.79 49.9461 27.7901 49.9459 27.7901C49.9315 27.7897 49.9172 27.7896 49.9027 27.7896C49.0143 27.7896 48.2942 28.5138 48.2942 29.4071C48.2942 30.3005 49.0143 31.0247 49.9027 31.0247C49.9172 31.0247 49.9315 31.0245 49.9459 31.0241C49.9461 31.0241 49.9462 31.0242 49.9462 31.0244C49.9462 31.0246 49.9463 31.0247 49.9465 31.0247Z" fill="white"/>
<path d="M62.8645 27.7896C62.7675 27.7896 62.6889 27.8686 62.6889 27.9661V33.0341C62.6889 33.1316 62.7675 33.2106 62.8645 33.2106H66.9258C66.9743 33.2106 67.0207 33.1904 67.0538 33.1548L67.5622 32.6097C67.6673 32.497 67.5878 32.3125 67.4341 32.3125H63.8881C63.7911 32.3125 63.7125 32.2335 63.7125 32.136V27.9661C63.7125 27.8686 63.6339 27.7896 63.537 27.7896H62.8645Z" fill="white"/>
<path fill-rule="evenodd" clip-rule="evenodd" d="M56.3597 27.7896C56.3594 27.7896 56.3592 27.7898 56.3592 27.79C56.3592 27.7903 56.359 27.7905 56.3588 27.7905C55.8397 27.813 55.4228 28.2307 55.4004 28.7509C55.4004 28.7511 55.4002 28.7514 55.3999 28.7514C55.3998 28.7514 55.3997 28.7514 55.3996 28.7515C55.3995 28.7516 55.3995 28.7517 55.3995 28.7518V32.1609C55.3995 32.1612 55.3997 32.1614 55.3999 32.1614C55.4002 32.1614 55.4004 32.1616 55.4004 32.1618C55.3998 32.1762 55.3995 32.1906 55.3995 32.2051C55.3995 32.7456 55.8251 33.1865 56.3588 33.2097C56.359 33.2097 56.3592 33.2099 56.3592 33.2101L56.3593 33.2103L56.3594 33.2105C56.3595 33.2106 56.3596 33.2106 56.3597 33.2106H60.0448C60.0451 33.2106 60.0453 33.2104 60.0453 33.2101L60.0454 33.2099L60.0456 33.2097L60.0458 33.2097C60.5795 33.1865 61.0051 32.7456 61.0051 32.2051C61.0051 32.1906 61.0048 32.1762 61.0042 32.1618C61.0041 32.1616 61.0043 32.1614 61.0046 32.1614C61.0049 32.1614 61.0051 32.1612 61.0051 32.1609V28.7518C61.0051 28.7516 61.0048 28.7514 61.0046 28.7514C61.0043 28.7514 61.0041 28.7511 61.0041 28.7509C60.9817 28.2307 60.5648 27.813 60.0458 27.7905C60.0455 27.7905 60.0453 27.7903 60.0453 27.79C60.0453 27.7898 60.0451 27.7896 60.0448 27.7896H56.3597ZM57.0466 28.7514L57.0464 28.7515L57.0463 28.7517C57.0463 28.7518 57.0462 28.7519 57.046 28.752C56.7216 28.7661 56.4611 29.0289 56.4471 29.3561C56.4471 29.3562 56.4469 29.3564 56.4468 29.3564C56.4466 29.3564 56.4465 29.3565 56.4465 29.3567V31.5011C56.4465 31.5012 56.4466 31.5014 56.4468 31.5014C56.4469 31.5014 56.447 31.5015 56.447 31.5017C56.4467 31.5107 56.4465 31.5198 56.4465 31.5289C56.4465 31.8689 56.7125 32.1462 57.046 32.1608C57.0462 32.1608 57.0463 32.1609 57.0463 32.1611L57.0464 32.1612L57.0465 32.1613L57.0466 32.1614H59.3579L59.358 32.1613L59.3582 32.1612L59.3582 32.1611C59.3582 32.1609 59.3583 32.1608 59.3585 32.1608C59.6921 32.1462 59.9581 31.8689 59.9581 31.5289C59.9581 31.5198 59.9579 31.5107 59.9575 31.5017L59.9575 31.5016L59.9575 31.5015L59.9578 31.5014C59.9579 31.5014 59.9581 31.5012 59.9581 31.5011V29.3567C59.9581 29.3565 59.9579 29.3564 59.9578 29.3564C59.9576 29.3564 59.9575 29.3562 59.9575 29.3561C59.9434 29.0289 59.6829 28.7661 59.3585 28.752C59.3583 28.7519 59.3582 28.7518 59.3582 28.7517L59.3582 28.7515L59.3581 28.7514L59.3579 28.7514H57.0466Z" fill="white"/>
<path fill-rule="evenodd" clip-rule="evenodd" d="M73.4678 33.0341C73.4678 33.1316 73.5458 33.2106 73.6419 33.2106H74.3307C74.4269 33.2106 74.5048 33.1316 74.5048 33.0341V28.8392C74.5048 28.839 74.5046 28.8388 74.5044 28.8388L74.5042 28.8387L74.5041 28.8387C74.504 28.8386 74.5039 28.8385 74.5039 28.8383C74.5045 28.824 74.5048 28.8096 74.5048 28.7951C74.5048 28.2545 74.0833 27.8136 73.5547 27.7905C73.5544 27.7905 73.5542 27.7903 73.5542 27.79C73.5542 27.7898 73.554 27.7896 73.5537 27.7896H70.0159C70.0156 27.7896 70.0154 27.7898 70.0154 27.79C70.0154 27.7903 70.0152 27.7905 70.015 27.7905C70.0008 27.7899 69.9865 27.7896 69.9722 27.7896C69.4234 27.7896 68.9784 28.2397 68.9784 28.7951C68.9784 28.8096 68.9787 28.824 68.9793 28.8383C68.9793 28.8386 68.9791 28.8388 68.9789 28.8388C68.9786 28.8388 68.9784 28.839 68.9784 28.8392V33.0341C68.9784 33.1316 69.0564 33.2106 69.1525 33.2106H69.8413C69.9375 33.2106 70.0154 33.1316 70.0154 33.0341V31.2886C70.0154 31.1912 70.0934 31.1121 70.1896 31.1121H73.2937C73.3898 31.1121 73.4678 31.1912 73.4678 31.2886V33.0341ZM70.0154 30.1487V29.276C70.0154 28.9379 70.2863 28.6639 70.6204 28.6639H72.8629C73.197 28.6639 73.4678 28.9379 73.4678 29.276V30.1487C73.4678 30.2462 73.3899 30.3252 73.2937 30.3252H70.1896C70.0934 30.3252 70.0154 30.2462 70.0154 30.1487Z" fill="white"/>
<path fill-rule="evenodd" clip-rule="evenodd" d="M88.007 33.2106C87.9099 33.2106 87.8312 33.1316 87.8312 33.0341V31.2886C87.8312 31.1912 87.7525 31.1121 87.6554 31.1121H84.517C84.4199 31.1121 84.3412 31.1912 84.3412 31.2886V33.0341C84.3412 33.1316 84.2625 33.2106 84.1654 33.2106H83.47C83.3729 33.2106 83.2942 33.1316 83.2942 33.0341V28.8392L83.2942 28.8391L83.2943 28.839C83.2944 28.8389 83.2945 28.8388 83.2947 28.8388C83.2949 28.8388 83.2951 28.8386 83.2951 28.8383C83.2945 28.824 83.2942 28.8096 83.2942 28.7951C83.2942 28.2397 83.7434 27.7896 84.2976 27.7896C84.312 27.7896 84.3264 27.7899 84.3407 27.7905C84.341 27.7905 84.3412 27.7903 84.3412 27.79C84.3412 27.7898 84.3414 27.7896 84.3417 27.7896L87.918 27.7896C87.9183 27.7896 87.9185 27.7898 87.9185 27.79C87.9185 27.7903 87.9187 27.7905 87.9189 27.7905C88.4526 27.8136 88.8782 28.2545 88.8782 28.7951C88.8782 28.8096 88.8779 28.824 88.8773 28.8383C88.8773 28.8386 88.8775 28.8388 88.8778 28.8388C88.8779 28.8388 88.878 28.8388 88.8781 28.8389C88.8782 28.839 88.8782 28.8391 88.8782 28.8392V33.0341C88.8782 33.1316 88.7995 33.2106 88.7024 33.2106H88.007ZM84.3412 29.276V30.1487C84.3412 30.2462 84.4199 30.3252 84.517 30.3252H87.6554C87.7525 30.3252 87.8312 30.2462 87.8312 30.1487V29.276C87.8312 28.9379 87.5578 28.6639 87.2205 28.6639H84.952C84.6147 28.6639 84.3412 28.9379 84.3412 29.276Z" fill="white"/>
<path d="M77.0974 27.7896C77.1484 27.7896 77.1968 27.8122 77.2299 27.8515L80.319 31.534C80.424 31.6588 80.6256 31.5835 80.6256 31.4194V27.9661C80.6256 27.8686 80.7035 27.7896 80.7997 27.7896H81.4885C81.5847 27.7896 81.6626 27.8686 81.6626 27.9661V33.0341C81.6626 33.1316 81.5847 33.2106 81.4885 33.2106H80.6321C80.6285 33.2106 80.6256 33.2077 80.6256 33.204C80.6256 33.2024 80.625 33.2009 80.624 33.1997L77.483 29.5429C77.3772 29.4201 77.1778 29.496 77.1778 29.659V33.0341C77.1778 33.1316 77.0998 33.2106 77.0036 33.2106H76.3104C76.2143 33.2106 76.1363 33.1316 76.1363 33.0341V27.9661C76.1363 27.8686 76.2143 27.7896 76.3104 27.7896H77.0974Z" fill="white"/>
<path d="M32.2812 33.3972C32.3671 33.3114 32.4835 33.2632 32.6049 33.2632H43.8073C44.0114 33.2632 44.1135 33.5099 43.9692 33.6542L41.7556 35.866C41.6697 35.9518 41.5533 36 41.4318 36H30.2295C30.0254 36 29.9232 35.7532 30.0676 35.609L32.2812 33.3972Z" fill="url(#paint0666_linear)"/>
<path d="M32.2812 25.134C32.3671 25.0482 32.4835 25 32.6049 25H43.8073C44.0114 25 44.1135 25.2468 43.9692 25.391L41.7556 27.6028C41.6697 27.6886 41.5533 27.7368 41.4318 27.7368H30.2295C30.0254 27.7368 29.9232 27.4901 30.0676 27.3458L32.2812 25.134Z" fill="url(#paint1666_linear)"/>
<path d="M41.7556 29.2393C41.6697 29.1535 41.5533 29.1053 41.4318 29.1053H30.2295C30.0254 29.1053 29.9232 29.352 30.0676 29.4963L32.2812 31.7081C32.3671 31.7939 32.4835 31.8421 32.6049 31.8421H43.8073C44.0114 31.8421 44.1135 31.5953 43.9692 31.4511L41.7556 29.2393Z" fill="url(#paint2666_linear)"/>
<rect x="354" y="29" width="45" height="4" rx="2" fill="#14F195"/>
<rect x="406" y="29" width="24" height="4" rx="2" fill="#666666"/>
<rect x="438" y="29" width="32" height="4" rx="2" fill="#666666"/>
<rect x="479" y="22" width="69" height="18" rx="4" fill="#14F195"/>
<rect x="30" y="82" width="178" height="5" rx="2.5" fill="white"/>
<path d="M15 203C15 200.791 16.7909 199 19 199H554C556.209 199 558 200.791 558 203V226H15V203Z" fill="#1F2423" fill-opacity="0.5"/>
<rect x="30" y="210" width="117" height="5" rx="2.5" fill="white"/>
<rect x="15" y="226" width="543" height="27" fill="#1F2423" fill-opacity="0.5"/>
<rect x="30" y="237" width="79" height="5" rx="2.5" fill="white"/>
<rect x="521" y="237" width="29" height="5" rx="2.5" fill="#14F195"/>
<rect x="15" y="280" width="543" height="27" fill="#1F2423" fill-opacity="0.5"/>
<rect x="30" y="291" width="79" height="5" rx="2.5" fill="white"/>
<rect x="388" y="291" width="162" height="5" rx="2.5" fill="white"/>
<rect x="15" y="334" width="543" height="27" fill="#1F2423" fill-opacity="0.5"/>
<rect x="30" y="345" width="31" height="5" rx="2.5" fill="white"/>
<rect x="513" y="345" width="37" height="5" rx="2.5" fill="white"/>
<path d="M15 388H558V411C558 413.209 556.209 415 554 415H19C16.7909 415 15 413.209 15 411V388Z" fill="#1F2423" fill-opacity="0.5"/>
<rect x="30" y="399" width="79" height="5" rx="2.5" fill="white"/>
<rect x="513" y="399" width="37" height="5" rx="2.5" fill="white"/>
<rect x="15" y="253" width="543" height="27" fill="#1F2423" fill-opacity="0.5"/>
<rect x="30" y="264" width="67" height="5" rx="2.5" fill="white"/>
<rect x="472" y="264" width="78" height="5" rx="2.5" fill="white"/>
<rect x="15" y="307" width="543" height="27" fill="#1F2423" fill-opacity="0.5"/>
<rect x="30" y="318" width="82" height="5" rx="2.5" fill="white"/>
<rect x="521" y="318" width="29" height="5" rx="2.5" fill="white"/>
<rect x="15" y="361" width="543" height="27" fill="#1F2423" fill-opacity="0.5"/>
<rect x="30" y="372" width="67" height="5" rx="2.5" fill="white"/>
<rect x="541" y="372" width="9" height="5" rx="2.5" fill="white"/>
<rect x="30" y="127" width="44" height="6" rx="3" fill="white"/>
<rect x="234" y="127" width="70" height="6" rx="3" fill="white"/>
<rect x="432" y="127" width="23" height="6" rx="3" fill="white"/>
<rect x="460" y="127" width="23" height="6" rx="3" fill="#14F195"/>
<rect x="30" y="160" width="26" height="3" rx="1.5" fill="#14F195"/>
<rect x="234" y="160" width="26" height="3" rx="1.5" fill="#14F195"/>
<rect x="432" y="160" width="26" height="3" rx="1.5" fill="#14F195"/>
<rect x="61" y="160" width="36" height="3" rx="1.5" fill="white"/>
<rect x="265" y="160" width="36" height="3" rx="1.5" fill="white"/>
<rect x="463" y="160" width="36" height="3" rx="1.5" fill="white"/>
<rect x="517" y="175" width="36" height="3" rx="1.5" fill="#666666"/>
<path d="M30.756 153C30.768 152.328 30.888 151.734 31.116 151.218C31.344 150.702 31.668 150.228 32.088 149.796C32.52 149.352 33.102 148.86 33.834 148.32L35.184 147.312C35.916 146.76 36.492 146.22 36.912 145.692C37.332 145.164 37.542 144.57 37.542 143.91C37.542 143.226 37.338 142.674 36.93 142.254C36.534 141.834 35.988 141.624 35.292 141.624C34.524 141.624 33.918 141.888 33.474 142.416C33.042 142.932 32.826 143.664 32.826 144.612V144.81H30.9V144.504C30.9 143.604 31.086 142.824 31.458 142.164C31.83 141.492 32.346 140.982 33.006 140.634C33.678 140.274 34.44 140.094 35.292 140.094C36.108 140.094 36.828 140.256 37.452 140.58C38.076 140.892 38.556 141.336 38.892 141.912C39.24 142.488 39.414 143.154 39.414 143.91C39.414 144.87 39.132 145.722 38.568 146.466C38.004 147.198 37.122 148.008 35.922 148.896L35.058 149.544C34.41 150.024 33.948 150.39 33.672 150.642C33.396 150.894 33.222 151.116 33.15 151.308H39.558V153H30.756ZM46.0047 153.288C43.8687 153.288 42.4467 152.238 41.7387 150.138C41.4267 149.25 41.2707 148.194 41.2707 146.97C41.2707 146.142 41.3487 145.338 41.5047 144.558C41.6727 143.778 41.9127 143.106 42.2247 142.542C42.6567 141.75 43.2267 141.144 43.9347 140.724C44.6547 140.304 45.4827 140.094 46.4187 140.094C47.5827 140.094 48.5187 140.412 49.2267 141.048C49.9347 141.684 50.3067 142.524 50.3427 143.568H48.4887C48.4527 142.956 48.2427 142.476 47.8587 142.128C47.4867 141.78 46.9887 141.606 46.3647 141.606C45.3687 141.606 44.6007 141.984 44.0607 142.74C43.5207 143.496 43.2207 144.576 43.1607 145.98L43.1067 146.628C43.4067 146.1 43.8567 145.656 44.4567 145.296C45.0567 144.924 45.7227 144.738 46.4547 144.738C47.2107 144.738 47.8827 144.918 48.4707 145.278C49.0707 145.626 49.5387 146.118 49.8747 146.754C50.2107 147.378 50.3787 148.092 50.3787 148.896C50.3787 149.736 50.1867 150.492 49.8027 151.164C49.4187 151.824 48.8907 152.346 48.2187 152.73C47.5587 153.102 46.8207 153.288 46.0047 153.288ZM45.9687 151.812C46.7127 151.812 47.3187 151.554 47.7867 151.038C48.2667 150.51 48.5067 149.82 48.5067 148.968C48.5067 148.188 48.2787 147.546 47.8227 147.042C47.3787 146.526 46.7847 146.268 46.0407 146.268C45.2847 146.268 44.6547 146.52 44.1507 147.024C43.6587 147.528 43.4127 148.158 43.4127 148.914C43.4127 149.85 43.6467 150.57 44.1147 151.074C44.5947 151.566 45.2127 151.812 45.9687 151.812ZM56.7407 153.288C55.7927 153.288 54.9707 153.138 54.2747 152.838C53.5907 152.538 53.0687 152.118 52.7087 151.578C52.3487 151.038 52.1687 150.408 52.1687 149.688C52.1687 148.956 52.4027 148.302 52.8707 147.726C53.3507 147.15 53.9987 146.73 54.8147 146.466C54.0947 146.214 53.5247 145.842 53.1047 145.35C52.6847 144.846 52.4747 144.252 52.4747 143.568C52.4747 142.908 52.6487 142.314 52.9967 141.786C53.3567 141.258 53.8607 140.844 54.5087 140.544C55.1567 140.244 55.9067 140.094 56.7587 140.094C57.5987 140.094 58.3427 140.244 58.9907 140.544C59.6387 140.844 60.1367 141.258 60.4847 141.786C60.8447 142.302 61.0247 142.89 61.0247 143.55C61.0247 144.234 60.8147 144.834 60.3947 145.35C59.9747 145.854 59.4047 146.226 58.6847 146.466C59.5127 146.718 60.1607 147.132 60.6287 147.708C61.1087 148.272 61.3487 148.914 61.3487 149.634C61.3487 150.366 61.1627 151.008 60.7907 151.56C60.4187 152.112 59.8847 152.538 59.1887 152.838C58.5047 153.138 57.6887 153.288 56.7407 153.288ZM56.7587 145.656C57.4667 145.656 58.0427 145.47 58.4867 145.098C58.9427 144.714 59.1707 144.222 59.1707 143.622C59.1707 143.022 58.9487 142.536 58.5047 142.164C58.0607 141.78 57.4787 141.588 56.7587 141.588C56.0267 141.588 55.4387 141.774 54.9947 142.146C54.5507 142.518 54.3287 142.998 54.3287 143.586C54.3287 144.198 54.5507 144.696 54.9947 145.08C55.4387 145.464 56.0267 145.656 56.7587 145.656ZM56.7587 151.812C57.5627 151.812 58.2167 151.608 58.7207 151.2C59.2247 150.78 59.4767 150.228 59.4767 149.544C59.4767 148.896 59.2187 148.362 58.7027 147.942C58.1987 147.51 57.5507 147.294 56.7587 147.294C55.9667 147.294 55.3127 147.51 54.7967 147.942C54.2927 148.362 54.0407 148.896 54.0407 149.544C54.0407 150.228 54.2867 150.78 54.7787 151.2C55.2827 151.608 55.9427 151.812 56.7587 151.812ZM65.6047 153H63.3007V150.696H65.6047V153ZM68.4484 153C68.6044 150.828 69.0544 148.872 69.7984 147.132C70.5424 145.392 71.4904 143.934 72.6424 142.758C72.8584 142.53 73.0864 142.314 73.3264 142.11H66.3784V140.4H75.0364V142.218C73.7404 143.55 72.6844 145.134 71.8684 146.97C71.0644 148.806 70.6144 150.816 70.5184 153H68.4484ZM76.4749 153H74.7829L79.6429 140.4H81.3349L76.4749 153Z" fill="#14F195"/>
<path d="M239.256 153.288C237.876 153.288 236.784 152.922 235.98 152.19C235.176 151.458 234.774 150.462 234.774 149.202H236.646C236.646 149.982 236.874 150.606 237.33 151.074C237.798 151.542 238.44 151.776 239.256 151.776C240.06 151.776 240.708 151.572 241.2 151.164C241.692 150.744 241.938 150.174 241.938 149.454C241.938 148.77 241.692 148.23 241.2 147.834C240.708 147.438 240.078 147.24 239.31 147.24H238.518V145.656H239.328C240 145.656 240.552 145.482 240.984 145.134C241.428 144.774 241.65 144.264 241.65 143.604C241.65 142.992 241.446 142.512 241.038 142.164C240.63 141.804 240.078 141.624 239.382 141.624C238.602 141.624 237.99 141.834 237.546 142.254C237.102 142.674 236.868 143.25 236.844 143.982H234.936C234.972 142.806 235.386 141.864 236.178 141.156C236.97 140.448 238.044 140.094 239.4 140.094C240.192 140.094 240.9 140.238 241.524 140.526C242.148 140.814 242.634 141.216 242.982 141.732C243.342 142.248 243.522 142.842 243.522 143.514C243.522 144.186 243.318 144.774 242.91 145.278C242.502 145.782 241.938 146.148 241.218 146.376C242.034 146.604 242.67 146.994 243.126 147.546C243.582 148.086 243.81 148.758 243.81 149.562C243.81 150.282 243.612 150.924 243.216 151.488C242.832 152.052 242.292 152.496 241.596 152.82C240.912 153.132 240.132 153.288 239.256 153.288ZM245.426 153C245.438 152.328 245.558 151.734 245.786 151.218C246.014 150.702 246.338 150.228 246.758 149.796C247.19 149.352 247.772 148.86 248.504 148.32L249.854 147.312C250.586 146.76 251.162 146.22 251.582 145.692C252.002 145.164 252.212 144.57 252.212 143.91C252.212 143.226 252.008 142.674 251.6 142.254C251.204 141.834 250.658 141.624 249.962 141.624C249.194 141.624 248.588 141.888 248.144 142.416C247.712 142.932 247.496 143.664 247.496 144.612V144.81H245.57V144.504C245.57 143.604 245.756 142.824 246.128 142.164C246.5 141.492 247.016 140.982 247.676 140.634C248.348 140.274 249.11 140.094 249.962 140.094C250.778 140.094 251.498 140.256 252.122 140.58C252.746 140.892 253.226 141.336 253.562 141.912C253.91 142.488 254.084 143.154 254.084 143.91C254.084 144.87 253.802 145.722 253.238 146.466C252.674 147.198 251.792 148.008 250.592 148.896L249.728 149.544C249.08 150.024 248.618 150.39 248.342 150.642C248.066 150.894 247.892 151.116 247.82 151.308H254.228V153H245.426ZM260.189 153.288C259.301 153.288 258.527 153.132 257.867 152.82C257.219 152.496 256.715 152.052 256.355 151.488C256.007 150.924 255.827 150.276 255.815 149.544H257.687C257.699 150.204 257.921 150.744 258.353 151.164C258.785 151.572 259.379 151.776 260.135 151.776C260.963 151.776 261.623 151.518 262.115 151.002C262.607 150.474 262.853 149.766 262.853 148.878C262.853 148.05 262.625 147.378 262.169 146.862C261.725 146.334 261.107 146.07 260.315 146.07C259.739 146.07 259.223 146.226 258.767 146.538C258.311 146.838 257.993 147.192 257.813 147.6H256.013L256.949 140.4H264.023V142.11H258.335L257.921 145.116C257.861 145.548 257.813 145.836 257.777 145.98C258.113 145.548 258.539 145.206 259.055 144.954C259.583 144.69 260.159 144.558 260.783 144.558C261.551 144.558 262.235 144.744 262.835 145.116C263.435 145.488 263.897 145.998 264.221 146.646C264.557 147.294 264.725 148.014 264.725 148.806C264.725 149.694 264.533 150.48 264.149 151.164C263.765 151.836 263.231 152.358 262.547 152.73C261.863 153.102 261.077 153.288 260.189 153.288ZM268.814 153H266.51V150.696H268.814V153ZM271.657 153C271.813 150.828 272.263 148.872 273.007 147.132C273.751 145.392 274.699 143.934 275.851 142.758C276.067 142.53 276.295 142.314 276.535 142.11H269.587V140.4H278.245V142.218C276.949 143.55 275.893 145.134 275.077 146.97C274.273 148.806 273.823 150.816 273.727 153H271.657ZM279.684 153H277.992L282.852 140.4H284.544L279.684 153Z" fill="#14F195"/>
<path d="M442.17 149.454C442.17 150.102 442.008 150.696 441.684 151.236C441.372 151.776 440.922 152.226 440.334 152.586C439.758 152.934 439.08 153.156 438.3 153.252V154.998H436.842V153.252C435.558 153.132 434.538 152.682 433.782 151.902C433.038 151.11 432.636 150.09 432.576 148.842H434.412C434.436 149.622 434.664 150.27 435.096 150.786C435.528 151.302 436.11 151.62 436.842 151.74V147.294L436.374 147.186C435.354 146.946 434.526 146.532 433.89 145.944C433.266 145.344 432.954 144.588 432.954 143.676C432.954 143.04 433.116 142.47 433.44 141.966C433.776 141.45 434.238 141.03 434.826 140.706C435.414 140.382 436.086 140.184 436.842 140.112V138.384H438.3V140.148C439.38 140.304 440.238 140.724 440.874 141.408C441.51 142.092 441.858 142.968 441.918 144.036H440.064C440.04 143.46 439.872 142.968 439.56 142.56C439.248 142.152 438.828 141.87 438.3 141.714V145.872L438.714 145.962C439.77 146.214 440.61 146.628 441.234 147.204C441.858 147.768 442.17 148.518 442.17 149.454ZM434.772 143.604C434.772 144.54 435.462 145.182 436.842 145.53V141.624C436.206 141.696 435.702 141.906 435.33 142.254C434.958 142.59 434.772 143.04 434.772 143.604ZM438.3 151.722C438.924 151.614 439.416 151.374 439.776 151.002C440.148 150.618 440.334 150.15 440.334 149.598C440.334 149.094 440.16 148.686 439.812 148.374C439.476 148.062 438.972 147.81 438.3 147.618V151.722ZM448.067 153.288C446.687 153.288 445.595 152.922 444.791 152.19C443.987 151.458 443.585 150.462 443.585 149.202H445.457C445.457 149.982 445.685 150.606 446.141 151.074C446.609 151.542 447.251 151.776 448.067 151.776C448.871 151.776 449.519 151.572 450.011 151.164C450.503 150.744 450.749 150.174 450.749 149.454C450.749 148.77 450.503 148.23 450.011 147.834C449.519 147.438 448.889 147.24 448.121 147.24H447.329V145.656H448.139C448.811 145.656 449.363 145.482 449.795 145.134C450.239 144.774 450.461 144.264 450.461 143.604C450.461 142.992 450.257 142.512 449.849 142.164C449.441 141.804 448.889 141.624 448.193 141.624C447.413 141.624 446.801 141.834 446.357 142.254C445.913 142.674 445.679 143.25 445.655 143.982H443.747C443.783 142.806 444.197 141.864 444.989 141.156C445.781 140.448 446.855 140.094 448.211 140.094C449.003 140.094 449.711 140.238 450.335 140.526C450.959 140.814 451.445 141.216 451.793 141.732C452.153 142.248 452.333 142.842 452.333 143.514C452.333 144.186 452.129 144.774 451.721 145.278C451.313 145.782 450.749 146.148 450.029 146.376C450.845 146.604 451.481 146.994 451.937 147.546C452.393 148.086 452.621 148.758 452.621 149.562C452.621 150.282 452.423 150.924 452.027 151.488C451.643 152.052 451.103 152.496 450.407 152.82C449.723 153.132 448.943 153.288 448.067 153.288ZM458.736 153.288C457.356 153.288 456.264 152.922 455.46 152.19C454.656 151.458 454.254 150.462 454.254 149.202H456.126C456.126 149.982 456.354 150.606 456.81 151.074C457.278 151.542 457.92 151.776 458.736 151.776C459.54 151.776 460.188 151.572 460.68 151.164C461.172 150.744 461.418 150.174 461.418 149.454C461.418 148.77 461.172 148.23 460.68 147.834C460.188 147.438 459.558 147.24 458.79 147.24H457.998V145.656H458.808C459.48 145.656 460.032 145.482 460.464 145.134C460.908 144.774 461.13 144.264 461.13 143.604C461.13 142.992 460.926 142.512 460.518 142.164C460.11 141.804 459.558 141.624 458.862 141.624C458.082 141.624 457.47 141.834 457.026 142.254C456.582 142.674 456.348 143.25 456.324 143.982H454.416C454.452 142.806 454.866 141.864 455.658 141.156C456.45 140.448 457.524 140.094 458.88 140.094C459.672 140.094 460.38 140.238 461.004 140.526C461.628 140.814 462.114 141.216 462.462 141.732C462.822 142.248 463.002 142.842 463.002 143.514C463.002 144.186 462.798 144.774 462.39 145.278C461.982 145.782 461.418 146.148 460.698 146.376C461.514 146.604 462.15 146.994 462.606 147.546C463.062 148.086 463.29 148.758 463.29 149.562C463.29 150.282 463.092 150.924 462.696 151.488C462.312 152.052 461.772 152.496 461.076 152.82C460.392 153.132 459.612 153.288 458.736 153.288ZM467.534 153H465.23V150.696H467.534V153ZM473.88 153.288C471.744 153.288 470.322 152.238 469.614 150.138C469.302 149.25 469.146 148.194 469.146 146.97C469.146 146.142 469.224 145.338 469.38 144.558C469.548 143.778 469.788 143.106 470.1 142.542C470.532 141.75 471.102 141.144 471.81 140.724C472.53 140.304 473.358 140.094 474.294 140.094C475.458 140.094 476.394 140.412 477.102 141.048C477.81 141.684 478.182 142.524 478.218 143.568H476.364C476.328 142.956 476.118 142.476 475.734 142.128C475.362 141.78 474.864 141.606 474.24 141.606C473.244 141.606 472.476 141.984 471.936 142.74C471.396 143.496 471.096 144.576 471.036 145.98L470.982 146.628C471.282 146.1 471.732 145.656 472.332 145.296C472.932 144.924 473.598 144.738 474.33 144.738C475.086 144.738 475.758 144.918 476.346 145.278C476.946 145.626 477.414 146.118 477.75 146.754C478.086 147.378 478.254 148.092 478.254 148.896C478.254 149.736 478.062 150.492 477.678 151.164C477.294 151.824 476.766 152.346 476.094 152.73C475.434 153.102 474.696 153.288 473.88 153.288ZM473.844 151.812C474.588 151.812 475.194 151.554 475.662 151.038C476.142 150.51 476.382 149.82 476.382 148.968C476.382 148.188 476.154 147.546 475.698 147.042C475.254 146.526 474.66 146.268 473.916 146.268C473.16 146.268 472.53 146.52 472.026 147.024C471.534 147.528 471.288 148.158 471.288 148.914C471.288 149.85 471.522 150.57 471.99 151.074C472.47 151.566 473.088 151.812 473.844 151.812ZM484.31 153.288C483.422 153.288 482.648 153.132 481.988 152.82C481.34 152.496 480.836 152.052 480.476 151.488C480.128 150.924 479.948 150.276 479.936 149.544H481.808C481.82 150.204 482.042 150.744 482.474 151.164C482.906 151.572 483.5 151.776 484.256 151.776C485.084 151.776 485.744 151.518 486.236 151.002C486.728 150.474 486.974 149.766 486.974 148.878C486.974 148.05 486.746 147.378 486.29 146.862C485.846 146.334 485.228 146.07 484.436 146.07C483.86 146.07 483.344 146.226 482.888 146.538C482.432 146.838 482.114 147.192 481.934 147.6H480.134L481.07 140.4H488.144V142.11H482.456L482.042 145.116C481.982 145.548 481.934 145.836 481.898 145.98C482.234 145.548 482.66 145.206 483.176 144.954C483.704 144.69 484.28 144.558 484.904 144.558C485.672 144.558 486.356 144.744 486.956 145.116C487.556 145.488 488.018 145.998 488.342 146.646C488.678 147.294 488.846 148.014 488.846 148.806C488.846 149.694 488.654 150.48 488.27 151.164C487.886 151.836 487.352 152.358 486.668 152.73C485.984 153.102 485.198 153.288 484.31 153.288Z" fill="#14F195"/>
<path d="M87.42 153.192C86.828 153.192 86.312 153.088 85.872 152.88C85.44 152.664 85.104 152.368 84.864 151.992C84.632 151.616 84.512 151.184 84.504 150.696H85.752C85.76 151.136 85.908 151.496 86.196 151.776C86.484 152.048 86.88 152.184 87.384 152.184C87.936 152.184 88.376 152.012 88.704 151.668C89.032 151.316 89.196 150.844 89.196 150.252C89.196 149.7 89.044 149.252 88.74 148.908C88.444 148.556 88.032 148.38 87.504 148.38C87.12 148.38 86.776 148.484 86.472 148.692C86.168 148.892 85.956 149.128 85.836 149.4H84.636L85.26 144.6H89.976V145.74H86.184L85.908 147.744C85.868 148.032 85.836 148.224 85.812 148.32C86.036 148.032 86.32 147.804 86.664 147.636C87.016 147.46 87.4 147.372 87.816 147.372C88.328 147.372 88.784 147.496 89.184 147.744C89.584 147.992 89.892 148.332 90.108 148.764C90.332 149.196 90.444 149.676 90.444 150.204C90.444 150.796 90.316 151.32 90.06 151.776C89.804 152.224 89.448 152.572 88.992 152.82C88.536 153.068 88.012 153.192 87.42 153.192ZM94.6581 153.192C93.2341 153.192 92.2861 152.492 91.8141 151.092C91.6061 150.5 91.5021 149.796 91.5021 148.98C91.5021 148.428 91.5541 147.892 91.6581 147.372C91.7701 146.852 91.9301 146.404 92.1381 146.028C92.4261 145.5 92.8061 145.096 93.2781 144.816C93.7581 144.536 94.3101 144.396 94.9341 144.396C95.7101 144.396 96.3341 144.608 96.8061 145.032C97.2781 145.456 97.5261 146.016 97.5501 146.712H96.3141C96.2901 146.304 96.1501 145.984 95.8941 145.752C95.6461 145.52 95.3141 145.404 94.8981 145.404C94.2341 145.404 93.7221 145.656 93.3621 146.16C93.0021 146.664 92.8021 147.384 92.7621 148.32L92.7261 148.752C92.9261 148.4 93.2261 148.104 93.6261 147.864C94.0261 147.616 94.4701 147.492 94.9581 147.492C95.4621 147.492 95.9101 147.612 96.3021 147.852C96.7021 148.084 97.0141 148.412 97.2381 148.836C97.4621 149.252 97.5741 149.728 97.5741 150.264C97.5741 150.824 97.4461 151.328 97.1901 151.776C96.9341 152.216 96.5821 152.564 96.1341 152.82C95.6941 153.068 95.2021 153.192 94.6581 153.192ZM94.6341 152.208C95.1301 152.208 95.5341 152.036 95.8461 151.692C96.1661 151.34 96.3261 150.88 96.3261 150.312C96.3261 149.792 96.1741 149.364 95.8701 149.028C95.5741 148.684 95.1781 148.512 94.6821 148.512C94.1781 148.512 93.7581 148.68 93.4221 149.016C93.0941 149.352 92.9301 149.772 92.9301 150.276C92.9301 150.9 93.0861 151.38 93.3981 151.716C93.7181 152.044 94.1301 152.208 94.6341 152.208ZM103.603 153H102.379V150.888H98.4914V149.772L101.995 144.6H103.603V149.808H105.151V150.888H103.603V153ZM102.379 149.808V145.74C102.307 145.868 102.191 146.06 102.031 146.316L99.9674 149.364L99.8234 149.58L99.6554 149.808H102.379ZM105.973 153C105.981 152.552 106.061 152.156 106.213 151.812C106.365 151.468 106.581 151.152 106.861 150.864C107.149 150.568 107.537 150.24 108.025 149.88L108.925 149.208C109.413 148.84 109.797 148.48 110.077 148.128C110.357 147.776 110.497 147.38 110.497 146.94C110.497 146.484 110.361 146.116 110.089 145.836C109.825 145.556 109.461 145.416 108.997 145.416C108.485 145.416 108.081 145.592 107.785 145.944C107.497 146.288 107.353 146.776 107.353 147.408V147.54H106.069V147.336C106.069 146.736 106.193 146.216 106.441 145.776C106.689 145.328 107.033 144.988 107.473 144.756C107.921 144.516 108.429 144.396 108.997 144.396C109.541 144.396 110.021 144.504 110.437 144.72C110.853 144.928 111.173 145.224 111.397 145.608C111.629 145.992 111.745 146.436 111.745 146.94C111.745 147.58 111.557 148.148 111.181 148.644C110.805 149.132 110.217 149.672 109.417 150.264L108.841 150.696C108.409 151.016 108.101 151.26 107.917 151.428C107.733 151.596 107.617 151.744 107.569 151.872H111.841V153H105.973Z" fill="white"/>
<path d="M291.504 153.192C290.584 153.192 289.856 152.948 289.32 152.46C288.784 151.972 288.516 151.308 288.516 150.468H289.764C289.764 150.988 289.916 151.404 290.22 151.716C290.532 152.028 290.96 152.184 291.504 152.184C292.04 152.184 292.472 152.048 292.8 151.776C293.128 151.496 293.292 151.116 293.292 150.636C293.292 150.18 293.128 149.82 292.8 149.556C292.472 149.292 292.052 149.16 291.54 149.16H291.012V148.104H291.552C292 148.104 292.368 147.988 292.656 147.756C292.952 147.516 293.1 147.176 293.1 146.736C293.1 146.328 292.964 146.008 292.692 145.776C292.42 145.536 292.052 145.416 291.588 145.416C291.068 145.416 290.66 145.556 290.364 145.836C290.068 146.116 289.912 146.5 289.896 146.988H288.624C288.648 146.204 288.924 145.576 289.452 145.104C289.98 144.632 290.696 144.396 291.6 144.396C292.128 144.396 292.6 144.492 293.016 144.684C293.432 144.876 293.756 145.144 293.988 145.488C294.228 145.832 294.348 146.228 294.348 146.676C294.348 147.124 294.212 147.516 293.94 147.852C293.668 148.188 293.292 148.432 292.812 148.584C293.356 148.736 293.78 148.996 294.084 149.364C294.388 149.724 294.54 150.172 294.54 150.708C294.54 151.188 294.408 151.616 294.144 151.992C293.888 152.368 293.528 152.664 293.064 152.88C292.608 153.088 292.088 153.192 291.504 153.192ZM296.757 153C296.861 151.552 297.161 150.248 297.657 149.088C298.153 147.928 298.785 146.956 299.553 146.172C299.697 146.02 299.849 145.876 300.009 145.74H295.377V144.6H301.149V145.812C300.285 146.7 299.581 147.756 299.037 148.98C298.501 150.204 298.201 151.544 298.137 153H296.757ZM304.85 153.192C304.258 153.192 303.742 153.088 303.302 152.88C302.87 152.664 302.534 152.368 302.294 151.992C302.062 151.616 301.942 151.184 301.934 150.696H303.182C303.19 151.136 303.338 151.496 303.626 151.776C303.914 152.048 304.31 152.184 304.814 152.184C305.366 152.184 305.806 152.012 306.134 151.668C306.462 151.316 306.626 150.844 306.626 150.252C306.626 149.7 306.474 149.252 306.17 148.908C305.874 148.556 305.462 148.38 304.934 148.38C304.55 148.38 304.206 148.484 303.902 148.692C303.598 148.892 303.386 149.128 303.266 149.4H302.066L302.69 144.6H307.406V145.74H303.614L303.338 147.744C303.298 148.032 303.266 148.224 303.242 148.32C303.466 148.032 303.75 147.804 304.094 147.636C304.446 147.46 304.83 147.372 305.246 147.372C305.758 147.372 306.214 147.496 306.614 147.744C307.014 147.992 307.322 148.332 307.538 148.764C307.762 149.196 307.874 149.676 307.874 150.204C307.874 150.796 307.746 151.32 307.49 151.776C307.234 152.224 306.878 152.572 306.422 152.82C305.966 153.068 305.442 153.192 304.85 153.192ZM311.742 144.6V153H310.518V147.12C310.518 146.792 310.526 146.548 310.542 146.388C310.334 146.724 310.054 147 309.702 147.216C309.358 147.424 308.974 147.536 308.55 147.552V146.364C309.062 146.3 309.518 146.104 309.918 145.776C310.318 145.448 310.582 145.056 310.71 144.6H311.742Z" fill="white"/>
<path d="M498.732 153.192C497.732 153.192 496.956 152.808 496.404 152.04C495.86 151.272 495.588 150.192 495.588 148.8C495.588 147.888 495.716 147.104 495.972 146.448C496.228 145.784 496.592 145.276 497.064 144.924C497.536 144.572 498.092 144.396 498.732 144.396C499.372 144.396 499.928 144.572 500.4 144.924C500.872 145.268 501.236 145.772 501.492 146.436C501.748 147.1 501.876 147.896 501.876 148.824C501.876 150.2 501.6 151.272 501.048 152.04C500.496 152.808 499.724 153.192 498.732 153.192ZM498.744 152.184C499.344 152.184 499.804 151.908 500.124 151.356C500.452 150.796 500.616 149.956 500.616 148.836C500.616 147.692 500.452 146.836 500.124 146.268C499.804 145.7 499.344 145.416 498.744 145.416C498.128 145.416 497.656 145.7 497.328 146.268C497.008 146.828 496.848 147.688 496.848 148.848C496.848 149.952 497.012 150.784 497.34 151.344C497.676 151.904 498.144 152.184 498.744 152.184ZM504.451 153H502.915V151.464H504.451V153ZM506.347 153C506.451 151.552 506.751 150.248 507.247 149.088C507.743 147.928 508.375 146.956 509.143 146.172C509.287 146.02 509.439 145.876 509.599 145.74H504.967V144.6H510.739V145.812C509.875 146.7 509.171 147.756 508.627 148.98C508.091 150.204 507.791 151.544 507.727 153H506.347ZM514.44 153.192C513.848 153.192 513.332 153.088 512.892 152.88C512.46 152.664 512.124 152.368 511.884 151.992C511.652 151.616 511.532 151.184 511.524 150.696H512.772C512.78 151.136 512.928 151.496 513.216 151.776C513.504 152.048 513.9 152.184 514.404 152.184C514.956 152.184 515.396 152.012 515.724 151.668C516.052 151.316 516.216 150.844 516.216 150.252C516.216 149.7 516.064 149.252 515.76 148.908C515.464 148.556 515.052 148.38 514.524 148.38C514.14 148.38 513.796 148.484 513.492 148.692C513.188 148.892 512.976 149.128 512.856 149.4H511.656L512.28 144.6H516.996V145.74H513.204L512.928 147.744C512.888 148.032 512.856 148.224 512.832 148.32C513.056 148.032 513.34 147.804 513.684 147.636C514.036 147.46 514.42 147.372 514.836 147.372C515.348 147.372 515.804 147.496 516.204 147.744C516.604 147.992 516.912 148.332 517.128 148.764C517.352 149.196 517.464 149.676 517.464 150.204C517.464 150.796 517.336 151.32 517.08 151.776C516.824 152.224 516.468 152.572 516.012 152.82C515.556 153.068 515.032 153.192 514.44 153.192ZM520.19 148.5C519.622 148.5 519.162 148.316 518.81 147.948C518.458 147.572 518.282 147.084 518.282 146.484C518.282 145.892 518.458 145.412 518.81 145.044C519.162 144.668 519.622 144.48 520.19 144.48C520.75 144.48 521.206 144.668 521.558 145.044C521.91 145.412 522.086 145.892 522.086 146.484C522.086 147.084 521.91 147.572 521.558 147.948C521.206 148.316 520.75 148.5 520.19 148.5ZM520.094 153H518.942L525.026 144.6H526.19L520.094 153ZM520.19 147.636C520.446 147.636 520.654 147.532 520.814 147.324C520.982 147.108 521.066 146.828 521.066 146.484C521.066 146.132 520.982 145.848 520.814 145.632C520.654 145.408 520.446 145.296 520.19 145.296C519.918 145.296 519.698 145.408 519.53 145.632C519.37 145.848 519.29 146.132 519.29 146.484C519.29 146.828 519.37 147.108 519.53 147.324C519.698 147.532 519.918 147.636 520.19 147.636ZM524.942 153.12C524.382 153.12 523.926 152.932 523.574 152.556C523.23 152.18 523.058 151.692 523.058 151.092C523.058 150.5 523.23 150.02 523.574 149.652C523.926 149.276 524.382 149.088 524.942 149.088C525.51 149.088 525.97 149.276 526.322 149.652C526.674 150.02 526.85 150.5 526.85 151.092C526.85 151.692 526.674 152.18 526.322 152.556C525.97 152.932 525.51 153.12 524.942 153.12ZM524.942 152.256C525.206 152.256 525.422 152.148 525.59 151.932C525.758 151.716 525.842 151.436 525.842 151.092C525.842 150.74 525.758 150.456 525.59 150.24C525.422 150.016 525.206 149.904 524.942 149.904C524.678 149.904 524.462 150.016 524.294 150.24C524.134 150.456 524.054 150.74 524.054 151.092C524.054 151.436 524.134 151.716 524.294 151.932C524.462 152.148 524.678 152.256 524.942 152.256Z" fill="white"/>
<defs>
<filter id="filter0_b666" x="-165" y="-16" width="905" height="583" filterUnits="userSpaceOnUse" color-interpolation-filters="sRGB">
<feFlood flood-opacity="0" result="BackgroundImageFix"/>
<feGaussianBlur in="BackgroundImage" stdDeviation="8"/>
<feComposite in2="SourceAlpha" operator="in" result="effect1_backgroundBlur"/>
<feBlend mode="normal" in="SourceGraphic" in2="effect1_backgroundBlur" result="shape"/>
</filter>
<filter id="filter1_f666" x="-211.169" y="-205.172" width="930.338" height="830.338" filterUnits="userSpaceOnUse" color-interpolation-filters="sRGB">
<feFlood flood-opacity="0" result="BackgroundImageFix"/>
<feBlend mode="normal" in="SourceGraphic" in2="BackgroundImageFix" result="shape"/>
<feGaussianBlur stdDeviation="91.5846" result="effect1_foregroundBlur"/>
</filter>
<filter id="filter2_f666" x="18.1838" y="-274.741" width="727.841" height="727.908" filterUnits="userSpaceOnUse" color-interpolation-filters="sRGB">
<feFlood flood-opacity="0" result="BackgroundImageFix"/>
<feBlend mode="normal" in="SourceGraphic" in2="BackgroundImageFix" result="shape"/>
<feGaussianBlur stdDeviation="61.5235" result="effect1_foregroundBlur"/>
</filter>
<filter id="filter3_f666" x="-158.304" y="47.6937" width="572.608" height="572.608" filterUnits="userSpaceOnUse" color-interpolation-filters="sRGB">
<feFlood flood-opacity="0" result="BackgroundImageFix"/>
<feBlend mode="normal" in="SourceGraphic" in2="BackgroundImageFix" result="shape"/>
<feGaussianBlur stdDeviation="59.1519" result="effect1_foregroundBlur"/>
</filter>
<filter id="filter4_f666" x="179.696" y="-155.306" width="572.608" height="572.608" filterUnits="userSpaceOnUse" color-interpolation-filters="sRGB">
<feFlood flood-opacity="0" result="BackgroundImageFix"/>
<feBlend mode="normal" in="SourceGraphic" in2="BackgroundImageFix" result="shape"/>
<feGaussianBlur stdDeviation="59.1519" result="effect1_foregroundBlur"/>
</filter>
<linearGradient id="paint0666_linear" x1="39.4897" y1="21.9826" x2="31.7367" y2="36.8327" gradientUnits="userSpaceOnUse">
<stop stop-color="#00FFA3"/>
<stop offset="1" stop-color="#DC1FFF"/>
</linearGradient>
<linearGradient id="paint1666_linear" x1="39.4897" y1="21.9826" x2="31.7367" y2="36.8327" gradientUnits="userSpaceOnUse">
<stop stop-color="#00FFA3"/>
<stop offset="1" stop-color="#DC1FFF"/>
</linearGradient>
<linearGradient id="paint2666_linear" x1="39.4897" y1="21.9826" x2="31.7367" y2="36.8327" gradientUnits="userSpaceOnUse">
<stop stop-color="#00FFA3"/>
<stop offset="1" stop-color="#DC1FFF"/>
</linearGradient>
<clipPath id="clip666">
<rect width="575" height="432" rx="16" fill="white"/>
</clipPath>
</defs>
</svg>